<?xml version="1.0" encoding="UTF-8"?>
<svg width="300" height="300" viewBox="0 0 300 300" fill="none" xmlns="http://www.w3.org/2000/svg">
  <path d="M150 20C150 20 100 80 100 140C100 170 120 190 150 190C180 190 200 170 200 140C200 80 150 20 150 20Z" fill="url(#paint0_linear)"/>
  <path d="M230 60C230 60 180 120 180 180C180 210 200 230 230 230C260 230 280 210 280 180C280 120 230 60 230 60Z" fill="url(#paint1_linear)"/>
  <path d="M70 60C70 60 20 120 20 180C20 210 40 230 70 230C100 230 120 210 120 180C120 120 70 60 70 60Z" fill="url(#paint2_linear)"/>
  <defs>
    <linearGradient id="paint0_linear" x1="150" y1="20" x2="150" y2="190" gradientUnits="userSpaceOnUse">
      <stop offset="0" stop-color="#00BFFF"/>
      <stop offset="1" stop-color="#0066CC"/>
    </linearGradient>
    <linearGradient id="paint1_linear" x1="230" y1="60" x2="230" y2="230" gradientUnits="userSpaceOnUse">
      <stop offset="0" stop-color="#00BFFF"/>
      <stop offset="1" stop-color="#0066CC"/>
    </linearGradient>
    <linearGradient id="paint2_linear" x1="70" y1="60" x2="70" y2="230" gradientUnits="userSpaceOnUse">
      <stop offset="0" stop-color="#00BFFF"/>
      <stop offset="1" stop-color="#0066CC"/>
    </linearGradient>
  </defs>
</svg>
