<svg xmlns="http://www.w3.org/2000/svg" width="512" height="512" viewBox="0 0 512 512">
  <!-- Background -->
  <rect x="0" y="0" width="512" height="512" rx="100" ry="100" fill="#4a6bff" />
  
  <!-- Brain circuits background pattern -->
  <g fill="none" stroke="#ffffff" stroke-width="4" opacity="0.2">
    <path d="M128,256 C128,185 185,128 256,128" />
    <path d="M256,384 C327,384 384,327 384,256" />
    <path d="M128,256 C128,327 185,384 256,384" />
    <path d="M256,128 C327,128 384,185 384,256" />
    <circle cx="256" cy="128" r="8" fill="#ffffff" />
    <circle cx="384" cy="256" r="8" fill="#ffffff" />
    <circle cx="256" cy="384" r="8" fill="#ffffff" />
    <circle cx="128" cy="256" r="8" fill="#ffffff" />
    
    <path d="M192,192 L320,320" />
    <path d="M320,192 L192,320" />
    <circle cx="192" cy="192" r="8" fill="#ffffff" />
    <circle cx="320" cy="192" r="8" fill="#ffffff" />
    <circle cx="192" cy="320" r="8" fill="#ffffff" />
    <circle cx="320" cy="320" r="8" fill="#ffffff" />
  </g>
  
  <!-- Chat bubbles -->
  <g transform="translate(256, 256) scale(0.65)">
    <!-- Left bubble (AI) -->
    <path d="M-150,-60 L-150,60 C-150,93 -123,120 -90,120 L30,120 L70,160 L70,120 L90,120 C123,120 150,93 150,60 L150,-60 C150,-93 123,-120 90,-120 L-90,-120 C-123,-120 -150,-93 -150,-60 Z" 
          fill="#ffffff" />
    
    <!-- AI brain symbol -->
    <g transform="translate(-70, 0)">
      <circle cx="0" cy="0" r="50" fill="#9c27b0" />
      <path d="M-22,-15 L-22,15 M-10,-25 L-10,25 M2,-30 L2,30 M14,-25 L14,25 M26,-15 L26,15" 
            stroke="#ffffff" stroke-width="6" stroke-linecap="round" />
    </g>
    
    <!-- Text dots -->
    <g transform="translate(60, 0)">
      <circle cx="-20" cy="0" r="8" fill="#4a6bff" />
      <circle cx="0" cy="0" r="8" fill="#4a6bff" />
      <circle cx="20" cy="0" r="8" fill="#4a6bff" />
    </g>
  </g>
</svg> 